# xmcd CD database file
#
# Track frame offsets:
#	150
#	11303
#	31021
#	44399
#	63881
#	76023
#	87698
#	105200
#	119590
#	130874
#	146812
#	159937
#	173643
#	185451
#	196125
#	209330
#	230277
#	244934
#	256765
#	271539
#
# Disc length: 3727 seconds
#
# Revision: 0
# Processed by: cddbd v1.5.2PL0 Copyright (c) Steve Scherf et al.
# Submitted via: CDex 1.51
#
DISCID=f70e8d14
DTITLE=Ramsey Lewis - The Sound of Spring - 1962 and Country Meets the Blues - 1962
DYEAR=1900
DGENRE=Jazz
TTITLE0=Sound of Spring
TTITLE1=Spring Can Really Hang You Up The Most
TTITLE2=Blue Spring
TTITLE3=Spring Is Here
TTITLE4=Spring Will Be A Little Late This Year
TTITLE5=Spring Fever
TTITLE6=It Might As Well Be Spring
TTITLE7=Soft Winds
TTITLE8=There'll Be Another Spring
TTITLE9=Truly, Truly Spring
TTITLE10=Your Cheatin' Heart
TTITLE11=St Louis Blues
TTITLE12=Blueberry Hill
TTITLE13=Country Meets The Blues
TTITLE14=Memphis In June
TTITLE15=High Noon
TTITLE16=I Need You So
TTITLE17=I Just Want To Make Love To You
TTITLE18=Tangleweed 'Round My Heart
TTITLE19=My Bucket's Got A Hole In It
EXTD=
EXTT0=
EXTT1=
EXTT2=
EXTT3=
EXTT4=
EXTT5=
EXTT6=
EXTT7=
EXTT8=
EXTT9=
EXTT10=
EXTT11=
EXTT12=
EXTT13=
EXTT14=
EXTT15=
EXTT16=
EXTT17=
EXTT18=
EXTT19=
PLAYORDER=
